<?xml version="1.0" encoding="utf-8"?>
<!-- Generator: Adobe Illustrator 21.0.0, SVG Export Plug-In . SVG Version: 6.00 Build 0)  -->
<svg version="1.1" id="Calque_1" xmlns="http://www.w3.org/2000/svg" xmlns:xlink="http://www.w3.org/1999/xlink" x="0px" y="0px"
	 viewBox="0 0 196.7 82" style="enable-background:new 0 0 196.7 82;" xml:space="preserve">
<style type="text/css">
	.st0{fill:#CAC09F;}
	.st1{fill:#161419;}
</style>
<g>
	<g>
		<path class="st0" d="M45.8,47.4c0,2.9-2,5-5.5,5h-4.5V42.3h4.5C43.7,42.3,45.8,44.5,45.8,47.4z M37.4,43.8v7.2h2.9
			c2.5,0,3.8-1.5,3.8-3.6c0-2.1-1.5-3.6-3.8-3.6H37.4z"/>
		<path class="st0" d="M49.9,42.3v6.5c0,2,0.7,2.5,3.4,2.5c2.7,0,3.4-0.5,3.4-2.5v-6.5h1.6v6.9c0,2.5-1.5,3.5-5,3.5
			c-3.6,0-5-1-5-3.5v-6.9H49.9z"/>
		<polygon class="st0" points="108.5,40.8 113,34.9 110.6,34.9 106.6,40.8 		"/>
	</g>
	<g>
		<path class="st1" d="M82.3,58.5h-2.5V42.3h11.1c3.3,0,5.3,1.7,5.3,4.5c0,2.3-1.6,4.2-4,4.5l4.5,7.1H94l-4.6-7.1h-7.1V58.5z
			 M90.9,49.1c1.7,0,2.7-0.8,2.7-2.2c0-1.4-0.9-2.2-2.7-2.2h-8.6v4.4H90.9z"/>
		<path class="st1" d="M120.1,54.3c2.3,1.5,5.1,2.4,7.4,2.4c3,0,4.8-1.4,4.8-3.1c0-1.9-1.7-2.7-5-2.8c-5-0.1-7.7-0.8-7.7-4.2
			c0-2.7,2.5-4.6,6.7-4.6c2.8,0,5.4,0.8,7.8,2.3l-1.3,2.1c-2.1-1.4-4.5-2.1-6.6-2.1c-2.6,0-4.1,1-4.1,2.3c0,1.6,1.7,2,5,2
			c5.2,0,7.8,1.8,7.8,5.2c0,2.9-2.7,5.3-7.2,5.3c-3.1,0-6.3-0.9-8.9-2.6L120.1,54.3z"/>
		<path class="st1" d="M138.1,50.4c0-4.8,4-8.5,9.9-8.5c6,0,9.9,3.7,9.9,8.5c0,4.8-4,8.6-9.9,8.6C142.1,59,138.1,55.2,138.1,50.4z
			 M155.3,50.4c0-3.5-2.9-6.2-7.3-6.2c-4.4,0-7.3,2.7-7.3,6.2c0,3.5,2.9,6.2,7.3,6.2C152.5,56.6,155.3,53.9,155.3,50.4z"/>
		<path class="st1" d="M164.6,58.5h-2.5V42.3h11.1c3.3,0,5.3,1.7,5.3,4.5c0,2.3-1.6,4.2-4,4.5l4.5,7.1h-2.8l-4.6-7.1h-7.1V58.5z
			 M173.2,49.1c1.7,0,2.7-0.8,2.7-2.2c0-1.4-0.9-2.2-2.7-2.2h-8.6v4.4H173.2z"/>
		<path class="st1" d="M130,35.3c2.3,1.5,5.1,2.4,7.4,2.4c3,0,4.8-1.4,4.8-3.1c0-1.9-1.7-2.7-5-2.8c-5-0.1-7.7-0.8-7.7-4.2
			c0-2.7,2.5-4.6,6.7-4.6c2.8,0,5.4,0.8,7.8,2.3l-1.3,2.1c-2.1-1.4-4.5-2.1-6.6-2.1c-2.6,0-4.1,1-4.1,2.3c0,1.6,1.7,2,5,2
			c5.2,0,7.8,1.8,7.8,5.2c0,2.9-2.7,5.3-7.2,5.3c-3.1,0-6.3-0.9-8.9-2.6L130,35.3z"/>
		<polygon class="st1" points="103.3,56.2 103.3,51 111.6,51 111.6,48.7 103.3,48.7 103.3,44.7 116,44.7 116,42.3 100.8,42.3 
			100.8,58.5 116.7,58.5 116.7,56.2 		"/>
		<polygon class="st1" points="23.9,22 28.5,16 26.1,16 22.1,22 		"/>
		<polygon class="st1" points="18.9,37.2 18.9,32.1 27.2,32.1 27.2,29.8 18.9,29.8 18.9,25.7 31.5,25.7 31.5,23.4 16.3,23.4 
			16.3,39.6 32.2,39.6 32.2,37.2 		"/>
		<path class="st1" d="M67.9,44.6h-6.8v-2.2h16.2v2.2h-6.8v13.9h-2.5V44.6z"/>
		<path class="st1" d="M21.3,55.2c0.6,0.6,1,0.6,1.4,1.2c0.4,0.5,0.8,1.2,1.1,1.5c0.3,0.3,0.7,0.4,0.7,0.4s0.7-0.5,1-0.8
			c0.3-0.3,0.6-0.5,1.1-1c0.5-0.5,0.9-0.8,1.3-1.2c0.4-0.4,0.4-0.5,0.9-0.3c0.6,0.1,0.4,0.4,0.6,0.7c0.1,0.3-0.1,0.6-0.2,1
			c-0.1,0.3-0.5,0.6-0.9,0.9c-0.4,0.3-0.5,0.4-0.3,0.6c0.2,0.2-0.1,0.3-0.3,0.6C27.5,59,27.2,59,27,59.2c-0.2,0.2-0.4,0.3-0.7,0.6
			c-0.3,0.3,0.1,0.6,0.2,1.1c0.2,0.5,0.8,0.4,1.1,0.9c0.4,0.5,1.1,1,1.5,1.4c0.4,0.3,0.5,1.1,1,1.4c0.5,0.3,0.3,0.4,0.2,0.6
			c-0.1,0.2-0.6,0.3-1.1,0.6c-0.5,0.3-0.2,0.2-0.5,0.2c-0.3,0,0.2-0.6-0.2-0.6c-0.5,0,0.4,1-1-0.3c-0.4-0.3-0.8-1-1.2-1.3
			c-0.3-0.4-0.7-0.8-1.1-1.1c-0.5-0.3-0.4-0.4-0.9-0.6c-0.4-0.2,0,0-0.3,0.2c-0.3,0.2-0.4,0.4-0.8,0.8c-0.5,0.4-0.4,0.4-0.9,0.8
			c-0.5,0.4-0.8,0.7-1,1c-0.2,0.2-0.2,0.4-0.7,1c-0.4,0.6-0.4,1-0.7,0.8c-0.3-0.2-0.7-1.1-1-1.5c-0.3-0.4,0.7-1.1,0.5-1.3
			c-0.2-0.3-0.5-0.2-0.2-0.6c0.3-0.4,0.8-0.8,1.1-1.1c0.3-0.2,1-0.7,1.1-0.9c0.2-0.2,0.7-0.5,0.9-0.6c0.1-0.2,0.2-0.6,0.2-0.7
			c-0.1-0.1-0.2-0.3-0.5-0.6c-0.3-0.2-0.2-0.3-0.3-0.5c-0.2-0.2-0.2-0.2-0.5-0.3c-0.4-0.1-0.2-0.1-0.5-0.3c-0.3-0.3-0.8-1.1-1.1-1.3
			c-0.3-0.3,0.6-0.1,0.2-0.5c-0.4-0.4-1.6-1.1-1.1-1.4c0.5-0.4,0.6-0.5,0.8-0.7c0.2-0.2,0.6-0.2,0.7-0.2
			C20.1,54.1,20.8,54.6,21.3,55.2z M18.5,63.9c-0.3,0-1,0.5-0.8,0.6c0.2,0.1,0.2,0.3,0.4,0.4C18.4,64.9,19.1,63.8,18.5,63.9z
			 M28.5,57.6c-0.2,0.1-0.4,0.4-0.1,0.4S28.8,57.5,28.5,57.6z M29.9,55.1c-0.2,0.2-0.4,0.5,0.1,0.4C30.4,55.5,30.1,54.9,29.9,55.1z
			 M30,56.1c-0.2,0-0.2,0.3,0,0.4C30.1,56.5,30.4,56,30,56.1z"/>
		<path class="st1" d="M51.8,31.5c0,4.7-3.2,8-8.8,8h-7.2V23.4H43C48.5,23.4,51.8,26.9,51.8,31.5z M38.4,25.7v11.5h4.7
			c4,0,6.2-2.4,6.2-5.7c0-3.3-2.4-5.8-6.2-5.8H38.4z"/>
		<path class="st1" d="M55.9,23.3h2.6v16.3h-2.6V23.3z"/>
		<path class="st1" d="M67.9,25.6h-6.8v-2.2h16.2v2.2h-6.8v13.9h-2.5V25.6z"/>
		<path class="st1" d="M79.8,23.3h2.6v16.3h-2.6V23.3z"/>
		<path class="st1" d="M86.5,31.5c0-4.8,4-8.5,9.9-8.5c6,0,9.9,3.7,9.9,8.5c0,4.8-4,8.6-9.9,8.6C90.5,40.1,86.5,36.3,86.5,31.5z
			 M103.8,31.5c0-3.5-2.9-6.2-7.3-6.2c-4.4,0-7.3,2.7-7.3,6.2s2.9,6.2,7.3,6.2C100.9,37.7,103.8,34.9,103.8,31.5z"/>
		<path class="st1" d="M110.5,23.4h1.3l10.3,11.4V23.4h2.5v16.2h-1.3L113,28.2v5.2h-2.5V23.4z"/>
		<path class="st1" d="M32.2,56c-0.1-0.8-1.1-1.2-1.7-1.6c-0.7-0.4-0.9-1.4-1.6-1.8c-0.5-0.4-1,0.8-1.3,1.1
			c-0.1,0.1-0.7,0.4-0.7,0.5c0.1,0.5,0,0.6-0.2,1c-0.2-0.3-0.5-0.6-0.5-0.1c-0.1,0.5-1,1.1-1.3,1.4c-0.5,0.5-1,1-1.6,1.5
			c-0.3,0.2-0.5,0.5-0.8,0.7c-0.2,0.2-0.6,0.1-0.7,0.4c-0.2,0.4-0.2,0.8-0.2,1.1c-0.1,0.2-0.8,0.6-1,0.6c-1.1,0.4-1.4,1.7-2.5,2.2
			c-0.5,0.3-0.7,0.8-1.1,1.1c-0.7,0.4-0.9,0.4-0.2,0.9c0.3,0.2,0.8,0.2,0.8,0.5c0,0.5,0.6,0.4,0.7,0.8c0.1,0.4,0.1,0.6,0.5,0.9
			C19,67.4,19.6,68,20,68c0.6,0,1-0.8,1.2-1.2c0,0,0.1-0.3,0.1-0.3c0,0,0.7-0.1,0.2-0.1c0.7,0.3,0.7-0.8,0.6-1.1
			c0.3,0,0.6,0.1,0.8-0.2c0.1-0.3,0.1-0.4,0.4-0.4c0.3-0.1,0.8-0.7,1-1c0.6-0.5,1-1.2,1.5-1.7c0.6-0.6,1-0.7,0.8-1.6
			c0.1,0,0.7,0.4,0.8,0.1c0-0.2,0-0.4,0.3-0.3c0.3,0,0.5-0.2,0.6-0.4c0.2-0.3,0.6-0.4,0.8-0.6c0.4-0.5,0.6-0.9,1.2-1.3
			C31.1,57.3,31.6,56.5,32.2,56z"/>
		<path class="st1" d="M23,55.4c-0.4-0.5-0.8-1.1-1.3-1.5c-0.4-0.3-1.1-0.6-1.3-1.2c-0.3-0.7-0.7,0-1.1,0.2c-0.4,0.3-0.6,0.4-0.5,1
			c-0.7-0.2-0.6,0.4-1,0.7c-0.5,0.3-0.9,0.7-1.3,1.1c-0.4,0.4,2.5,2.6,2.8,2.9c0.1,0.1,0.6,0.1,0.6,0.2c-0.1,0.1-0.4,0.3-0.2,0.4
			c0.3,0.2,0.5,0.4,0.8,0.5c0.1,0,0.6-0.3,0.6-0.1c0,1.2,1.6,2.4,2.7,2.8c0-0.3,0,0.2,0,0.2c0.1,0.2,0.2,0.4,0.3,0.5
			c0.2,0.3,0.5,0.7,0.9,0.8c0.4,0.2,0.8-0.2,1.2,0.3c0.5,0.6-0.1,0.5-0.1,0.7c0,0.2,0.9,0.7,0.9,0.5c0,0.3-0.3,0.4-0.1,0.6
			c0.2,0.2,0.4,0.4,0.6,0.7c0.1,0.1,1,1.3,1,1.3c0.4,0,0.4-0.3,0.6-0.5c0.2-0.2,0.6-0.2,0.9-0.5c0.7-0.6,1.4-1.2,2-1.9
			c0.7-0.7-0.4-1.1-0.9-1.5c-0.4-0.3-0.8-0.5-1.2-0.8c-0.4-0.2-0.4-0.7-0.8-0.9c-0.2-0.1-0.6-0.1-0.7-0.3c-0.1-0.2-0.2-0.4-0.1-0.6
			c0.1-0.6-0.6-0.2-0.9-0.7c-0.5-0.9-1.4-1.6-2.1-2.3C24.3,57,23.6,56.2,23,55.4z"/>
		<path class="st1" d="M25.7,63.9c-0.1,0-0.4-0.4-0.5-0.2c-0.2,0.4-0.3,0.6,0.1,0.9C25.9,65,26.3,64.1,25.7,63.9z"/>
	</g>
</g>
</svg>
